<?xml version="1.0" encoding="UTF-8"?>
<svg width="32" height="32" viewBox="0 0 32 32" fill="none" xmlns="http://www.w3.org/2000/svg">
  <!-- Beach ball stripes -->
  <circle cx="16" cy="16" r="15" fill="#FF4B4B" stroke="#000" stroke-width="2"/>
  <path d="M16 1C16 16 16 31 16 31" stroke="#000" stroke-width="2"/>
  <path d="M1 16C16 16 31 16 31 16" stroke="#000" stroke-width="2"/>
  <path d="M4.5 4.5C27.5 27.5 27.5 27.5 27.5 27.5" stroke="#000" stroke-width="2"/>
  <path d="M27.5 4.5C4.5 27.5 4.5 27.5 4.5 27.5" stroke="#000" stroke-width="2"/>
  
  <!-- Color segments -->
  <path d="M16 1C8.5 8.5 8.5 23.5 16 31" fill="#4B9EFF"/>
  <path d="M16 1C23.5 8.5 23.5 23.5 16 31" fill="#FFD84B"/>
  <path d="M1 16C8.5 8.5 23.5 8.5 31 16" fill="#4BFF4B"/>
  <path d="M1 16C8.5 23.5 23.5 23.5 31 16" fill="#FF4B4B"/>
</svg>
